<svg width="150" height="86" viewBox="0 0 150 86" fill="none" xmlns="http://www.w3.org/2000/svg">
<path d="M85.7316 79.3709H86.8591C87.1611 79.3508 87.4632 79.4313 87.7249 79.6125C87.9262 79.7938 88.047 80.0555 88.0269 80.3172C88.047 80.579 87.9464 80.8609 87.7652 81.0622C87.5638 81.2636 87.3021 81.3844 87.0202 81.4246V81.4448C87.4632 81.5253 87.7853 81.928 87.7652 82.3911C87.7853 82.7535 87.6242 83.1159 87.3423 83.3575C87.0202 83.5991 86.5974 83.7401 86.1947 83.6998H84.8457L85.7316 79.3709ZM85.5705 81.5656L85.1678 83.4381H86.1746C86.4967 83.4582 86.8189 83.3575 87.0806 83.1763C87.3021 82.9951 87.4229 82.7132 87.4027 82.4112C87.4229 82.1696 87.3222 81.928 87.141 81.7669C86.8994 81.6058 86.6175 81.5454 86.3356 81.5656H85.5705ZM85.6309 81.3038H86.4564C86.7786 81.324 87.1007 81.2434 87.3826 81.0622C87.6041 80.9011 87.7249 80.6394 87.7048 80.3575C87.7249 80.1562 87.6242 79.9548 87.4833 79.8139C87.2819 79.6729 87.0403 79.6125 86.7987 79.6327H85.9934L85.6309 81.3038Z" fill="white"/>
<path d="M88.4296 80.4783H88.7316L88.9732 82.1091C89.0739 82.7937 89.1343 83.2367 89.1343 83.438H89.1745C89.2551 83.2367 89.4363 82.8742 89.7182 82.3508L90.745 80.4783H91.047L88.9329 84.3038C88.8322 84.485 88.7114 84.6662 88.5705 84.8273C88.4698 84.9279 88.349 85.0085 88.2282 85.0689C88.0873 85.1293 87.9463 85.1695 87.8054 85.1494C87.6846 85.1494 87.5437 85.1293 87.4229 85.089V84.8071C87.5437 84.8675 87.6846 84.8877 87.8255 84.8877C87.9866 84.8877 88.1276 84.8273 88.2685 84.7467C88.4296 84.6058 88.5504 84.4447 88.651 84.2635C88.7718 84.042 88.8725 83.8608 88.9531 83.7199L88.4296 80.4783Z" fill="white"/>
<path d="M94.8121 82.5117H93.3826L92.7584 83.7197H92.0134L94.3289 79.3909H95.1342L95.6175 83.7197H94.9329L94.8121 82.5117ZM94.7718 81.8875C94.6913 81.062 94.651 80.5788 94.6309 80.3976C94.6107 80.2164 94.6107 80.0956 94.6107 79.9949C94.5101 80.2566 94.3691 80.5587 94.1879 80.9009L93.6846 81.8875H94.7718Z" fill="white"/>
<path d="M96.7852 83.6996H96.1006L97.0872 79.0889H97.7919L96.7852 83.6996Z" fill="white"/>
<path d="M99.1208 80.438L98.7382 82.2501C98.698 82.4313 98.6577 82.6326 98.6376 82.8138C98.6376 83.0756 98.7584 83.2165 99.0201 83.2165C99.1812 83.2165 99.3221 83.1561 99.4429 83.0554C99.604 82.9145 99.7248 82.7534 99.8255 82.5521C99.9463 82.3105 100.027 82.0689 100.067 81.8272L100.369 80.438H101.054L100.369 83.7199H99.8255L99.8859 83.1158H99.8658C99.7248 83.3172 99.5637 83.4984 99.3624 83.6192C99.2013 83.7199 99 83.7803 98.7986 83.7803C98.5772 83.8004 98.3557 83.7199 98.1946 83.5588C98.0335 83.3776 97.9731 83.1561 97.9731 82.9145C97.9731 82.7937 97.9933 82.6729 98.0134 82.5521C98.0335 82.4313 98.0537 82.3105 98.0738 82.1897L98.4362 80.4581L99.1208 80.438Z" fill="white"/>
<path d="M103.57 80.3774C103.671 80.3774 103.792 80.3976 103.892 80.4177L103.731 81.062C103.631 81.0419 103.53 81.0217 103.429 81.0217C103.168 81.0217 102.926 81.1425 102.765 81.364C102.564 81.6258 102.423 81.9278 102.362 82.2499L102.04 83.7399H101.335L102.04 80.458H102.584L102.523 81.062H102.544C102.664 80.8607 102.846 80.6795 103.027 80.5586C103.208 80.4177 103.389 80.3774 103.57 80.3774Z" fill="white"/>
<path d="M104.859 83.7601C104.597 83.7802 104.356 83.6594 104.195 83.4581C104.013 83.2165 103.933 82.9145 103.953 82.6125C103.953 82.2299 104.013 81.8474 104.154 81.4849C104.275 81.1628 104.476 80.8809 104.718 80.6594C104.94 80.4581 105.221 80.3574 105.523 80.3574C105.705 80.3574 105.866 80.3977 106.027 80.4984C106.168 80.599 106.289 80.74 106.349 80.901H106.389L106.57 80.438H107.114L106.409 83.7198H105.846L105.906 83.1963H105.886C105.584 83.5789 105.242 83.7601 104.859 83.7601ZM105.121 83.1963C105.302 83.1762 105.483 83.0957 105.604 82.9749C105.765 82.7937 105.906 82.5923 105.987 82.3507C106.087 82.089 106.148 81.7869 106.148 81.5051C106.148 81.344 106.107 81.2031 106.007 81.0823C105.906 80.9816 105.785 80.9212 105.644 80.9212C105.463 80.9212 105.282 81.0017 105.161 81.1427C105 81.3239 104.879 81.5252 104.799 81.7668C104.718 82.0286 104.658 82.2903 104.658 82.5722C104.638 82.7333 104.698 82.8943 104.778 83.0151C104.859 83.1561 104.98 83.2165 105.121 83.1963Z" fill="white"/>
<path d="M112.248 80.5588C112.269 81.0018 112.087 81.4045 111.745 81.6864C111.342 81.9682 110.839 82.1092 110.336 82.089H110.014L109.671 83.6998H108.967L109.873 79.3709H110.859C111.222 79.3508 111.584 79.4515 111.886 79.6729C112.148 79.9145 112.269 80.2367 112.248 80.5588ZM110.154 81.485H110.436C110.718 81.5052 111.02 81.4246 111.242 81.2434C111.443 81.0823 111.544 80.8407 111.524 80.579C111.544 80.3978 111.483 80.2367 111.342 80.1159C111.181 80.0152 111 79.9548 110.819 79.975H110.477L110.154 81.485Z" fill="white"/>
<path d="M113.436 83.7601C113.174 83.7802 112.933 83.6594 112.772 83.4581C112.591 83.2165 112.51 82.9145 112.53 82.6125C112.53 82.2299 112.591 81.8474 112.731 81.4849C112.852 81.1628 113.033 80.8809 113.295 80.6594C113.517 80.4581 113.799 80.3574 114.08 80.3574C114.262 80.3574 114.423 80.3977 114.584 80.4984C114.725 80.599 114.846 80.74 114.906 80.901H114.946L115.127 80.438H115.671L114.966 83.7198H114.423L114.483 83.1963H114.463C114.161 83.5789 113.819 83.7601 113.436 83.7601ZM113.698 83.1963C113.879 83.1762 114.06 83.0957 114.181 82.9749C114.342 82.7937 114.483 82.5923 114.564 82.3507C114.664 82.089 114.725 81.7869 114.725 81.5051C114.725 81.344 114.684 81.2031 114.584 81.0823C114.483 80.9816 114.362 80.9212 114.221 80.9212C114.04 80.9212 113.859 81.0017 113.758 81.1427C113.597 81.3239 113.476 81.5252 113.396 81.7668C113.315 82.0286 113.255 82.2903 113.255 82.5722C113.235 82.7333 113.295 82.8943 113.376 83.0151C113.436 83.1561 113.557 83.2165 113.698 83.1963Z" fill="white"/>
<path d="M118.128 80.3774C118.228 80.3774 118.349 80.3976 118.45 80.4177L118.289 81.062C118.188 81.0419 118.087 81.0217 117.987 81.0217C117.725 81.0217 117.483 81.1425 117.322 81.3439C117.121 81.6056 116.98 81.9076 116.92 82.2298L116.597 83.7197H115.913L116.618 80.4378H117.161L117.101 81.0419H117.121C117.242 80.8405 117.423 80.6593 117.624 80.5385C117.765 80.4177 117.946 80.3774 118.128 80.3774Z" fill="white"/>
<path d="M119.436 83.7601C119.174 83.7802 118.933 83.6594 118.772 83.4581C118.591 83.2165 118.51 82.9145 118.53 82.6125C118.53 82.2299 118.591 81.8474 118.731 81.4849C118.852 81.1628 119.033 80.8809 119.295 80.6594C119.517 80.4581 119.799 80.3574 120.101 80.3574C120.282 80.3574 120.443 80.3977 120.604 80.4984C120.745 80.599 120.866 80.74 120.926 80.901H120.966L121.148 80.438H121.691L120.986 83.7198H120.443L120.503 83.1963H120.483C120.141 83.5789 119.799 83.7601 119.436 83.7601ZM119.678 83.1963C119.859 83.1762 120.04 83.0957 120.161 82.9749C120.322 82.7937 120.463 82.5923 120.544 82.3507C120.644 82.089 120.705 81.7869 120.705 81.5051C120.705 81.344 120.664 81.2031 120.564 81.0823C120.463 80.9816 120.342 80.9212 120.201 80.9212C120.02 80.9212 119.839 81.0017 119.718 81.1427C119.557 81.3239 119.436 81.5252 119.356 81.7668C119.275 82.0286 119.215 82.2903 119.215 82.5722C119.195 82.7333 119.235 82.8943 119.335 83.0151C119.416 83.1359 119.557 83.2165 119.678 83.1963Z" fill="white"/>
<path d="M125.839 83.6997H123.544L124.45 79.3708H126.745L126.624 79.9749H125.034L124.792 81.1427H126.282L126.161 81.7467H124.671L124.389 83.0957H126L125.839 83.6997Z" fill="white"/>
<path d="M128.919 80.3776C129.362 80.3776 129.604 80.6192 129.664 81.0823H129.685C129.805 80.8608 129.987 80.6796 130.188 80.5588C130.369 80.438 130.57 80.3776 130.772 80.3776C130.993 80.3574 131.215 80.438 131.376 80.599C131.517 80.7802 131.597 81.0017 131.577 81.2433C131.577 81.4245 131.557 81.6057 131.517 81.7869L131.094 83.7198H130.409L130.832 81.7265C130.872 81.5856 130.872 81.4648 130.893 81.3239C130.893 81.0621 130.772 80.9413 130.53 80.9413C130.289 80.9614 130.047 81.1024 129.926 81.3037C129.725 81.5856 129.584 81.9279 129.523 82.2702L129.221 83.6997H128.517L128.94 81.7064C128.96 81.5856 128.98 81.4648 128.98 81.3239C128.98 81.0621 128.859 80.9212 128.638 80.9212C128.396 80.9413 128.154 81.0822 128.034 81.3037C127.832 81.6057 127.691 81.948 127.631 82.3104L127.349 83.6997H126.644L127.349 80.4178H127.893L127.832 81.0218H127.852C128.174 80.5789 128.517 80.3776 128.919 80.3776Z" fill="white"/>
<path d="M133.631 83.7602C133.288 83.7602 132.966 83.5589 132.825 83.2367H132.805C132.785 83.4179 132.765 83.5991 132.725 83.7804L132.443 85.1696H131.758L132.765 80.4381H133.309L133.248 81.0018H133.268C133.57 80.5991 133.913 80.3777 134.295 80.3777C134.557 80.3575 134.799 80.4783 134.96 80.6797C135.141 80.9213 135.221 81.2233 135.201 81.5253C135.201 81.9079 135.141 82.2904 135 82.6528C134.879 82.975 134.698 83.2569 134.436 83.4783C134.215 83.6595 133.913 83.7602 133.631 83.7602ZM134.033 80.9414C133.852 80.9616 133.671 81.0421 133.55 81.183C133.389 81.3642 133.248 81.5656 133.168 81.8072C133.067 82.0689 133.027 82.3307 133.027 82.6126C133.007 82.7736 133.067 82.9347 133.168 83.0555C133.268 83.1562 133.409 83.2166 133.55 83.2166C133.731 83.2166 133.913 83.1159 134.013 82.975C134.174 82.7938 134.275 82.5723 134.356 82.3508C134.436 82.0891 134.476 81.8273 134.476 81.5455C134.476 81.1428 134.335 80.9414 134.033 80.9414Z" fill="white"/>
<path d="M137.839 80.3774C137.94 80.3774 138.06 80.3976 138.161 80.4177L138 81.062C137.899 81.0419 137.799 81.0217 137.698 81.0217C137.436 81.0217 137.195 81.1425 137.034 81.3439C136.832 81.6056 136.691 81.9076 136.631 82.2298L136.309 83.7197H135.604L136.309 80.4378H136.852L136.792 81.0419H136.812C136.933 80.8405 137.114 80.6593 137.315 80.5385C137.476 80.4177 137.658 80.3774 137.839 80.3774Z" fill="white"/>
<path d="M139.47 83.7602C139.128 83.7804 138.805 83.6595 138.564 83.4381C138.342 83.1965 138.222 82.8542 138.242 82.5119C138.242 82.1293 138.322 81.7669 138.463 81.4246C138.604 81.1226 138.805 80.8408 139.087 80.6394C139.349 80.4582 139.651 80.3575 139.973 80.3575C140.235 80.3374 140.497 80.4179 140.718 80.579C140.899 80.72 141 80.9616 140.98 81.183C140.98 81.5253 140.799 81.8676 140.477 82.0287C140.034 82.2501 139.55 82.3508 139.067 82.3307H138.946V82.4314V82.5119C138.926 82.6931 138.987 82.8743 139.107 83.0354C139.228 83.1763 139.43 83.2367 139.611 83.2166C139.752 83.2166 139.893 83.1965 140.034 83.1562C140.215 83.0958 140.376 83.0354 140.537 82.9548V83.5186C140.376 83.5991 140.195 83.6595 140.013 83.6998C139.832 83.7401 139.651 83.7602 139.47 83.7602ZM139.913 80.9012C139.711 80.9012 139.51 81.0018 139.369 81.1629C139.188 81.3441 139.067 81.5857 139.007 81.8273H139.087C139.389 81.8475 139.691 81.7871 139.953 81.6663C140.134 81.5857 140.255 81.4246 140.275 81.2233C140.275 81.1428 140.255 81.0421 140.175 80.9817C140.114 80.9213 140.013 80.9012 139.913 80.9012Z" fill="white"/>
<path d="M143.456 82.6931C143.477 82.9951 143.336 83.2971 143.114 83.4783C142.832 83.6797 142.49 83.7803 142.148 83.7602C141.826 83.7602 141.483 83.6998 141.201 83.5589V82.9548C141.483 83.1159 141.805 83.2166 142.128 83.2166C142.289 83.2166 142.45 83.1763 142.591 83.0958C142.711 83.0354 142.772 82.8944 142.772 82.7736C142.772 82.673 142.732 82.5924 142.671 82.5119C142.55 82.3911 142.409 82.2904 142.248 82.23C142.047 82.1293 141.866 81.9884 141.725 81.8273C141.624 81.6864 141.564 81.5052 141.564 81.3441C141.544 81.0622 141.665 80.8005 141.886 80.6193C142.128 80.4381 142.43 80.3374 142.752 80.3575C143.114 80.3575 143.456 80.4381 143.779 80.5991L143.557 81.1226C143.316 80.9817 143.054 80.9011 142.772 80.9011C142.651 80.9011 142.53 80.9213 142.43 81.0018C142.349 81.0622 142.289 81.1629 142.289 81.2837C142.289 81.3642 142.329 81.4649 142.389 81.5253C142.51 81.626 142.651 81.7266 142.792 81.7871C142.953 81.8676 143.094 81.9683 143.235 82.0891C143.316 82.1696 143.396 82.2501 143.436 82.3709C143.436 82.4716 143.456 82.5924 143.456 82.6931Z" fill="white"/>
<path d="M145.047 83.7601C144.785 83.7802 144.544 83.6594 144.383 83.4581C144.201 83.2165 144.121 82.9145 144.141 82.6125C144.141 82.2299 144.201 81.8474 144.342 81.4849C144.463 81.1628 144.644 80.8809 144.906 80.6594C145.128 80.4581 145.409 80.3574 145.691 80.3574C145.873 80.3574 146.034 80.3977 146.195 80.4984C146.336 80.599 146.456 80.74 146.517 80.901H146.557L146.738 80.438H147.282L146.577 83.7198H146.034L146.094 83.1963H146.074C145.772 83.5789 145.43 83.7601 145.047 83.7601ZM145.309 83.1963C145.49 83.1762 145.671 83.0957 145.792 82.9749C145.953 82.7937 146.094 82.5923 146.175 82.3507C146.275 82.089 146.336 81.7869 146.336 81.5051C146.336 81.344 146.295 81.2031 146.195 81.0823C146.094 80.9816 145.973 80.9212 145.832 80.9212C145.651 80.9212 145.47 81.0017 145.369 81.1427C145.208 81.3239 145.087 81.5252 145.007 81.7668C144.926 82.0286 144.866 82.2903 144.866 82.5722C144.846 82.7333 144.906 82.8943 144.987 83.0151C145.047 83.1561 145.168 83.2165 145.309 83.1963Z" fill="white"/>
<path d="M149.698 82.6931C149.718 82.9951 149.577 83.2971 149.356 83.4783C149.074 83.6797 148.731 83.7803 148.389 83.7602C148.067 83.7602 147.725 83.6998 147.443 83.5589V82.9548C147.725 83.1159 148.047 83.2166 148.369 83.2166C148.53 83.2166 148.691 83.1763 148.832 83.0958C148.953 83.0354 149.013 82.8944 149.013 82.7736C149.013 82.673 148.973 82.5924 148.913 82.5119C148.792 82.3911 148.651 82.2904 148.49 82.23C148.289 82.1293 148.107 81.9884 147.966 81.8273C147.866 81.6864 147.805 81.5052 147.805 81.3441C147.785 81.0622 147.906 80.8005 148.127 80.6193C148.369 80.4381 148.671 80.3374 148.973 80.3575C149.335 80.3575 149.678 80.4381 150 80.5991L149.778 81.1226C149.537 80.9817 149.275 80.9011 148.993 80.9011C148.872 80.9011 148.752 80.9213 148.651 81.0018C148.57 81.0622 148.51 81.1629 148.51 81.2837C148.51 81.3642 148.55 81.4649 148.611 81.5253C148.731 81.626 148.872 81.7266 149.013 81.7871C149.174 81.8676 149.315 81.9683 149.456 82.0891C149.537 82.1696 149.597 82.2501 149.658 82.3709C149.678 82.4716 149.698 82.5924 149.698 82.6931Z" fill="white"/>
<path d="M77.0135 11.438C75.5839 10.3105 73.49 9.7065 70.5504 9.7065C69.2215 9.68637 67.8725 9.80717 66.5638 10.0689C65.6175 10.3307 64.7115 10.7535 63.9262 11.3374C63.2618 11.8407 62.7383 12.5253 62.4162 13.2904C62.1141 14.0354 61.9531 14.8206 61.9732 15.626V16.4515C61.8927 16.6729 62.0537 16.834 62.2752 16.834H65.8793C66.0403 16.8139 66.1611 16.6931 66.1813 16.532C66.2417 15.7266 66.5638 14.9615 67.0873 14.3575C67.6913 13.6729 68.8188 13.3105 70.4699 13.3105C71.1746 13.2904 71.8994 13.3911 72.5638 13.6125C73.0269 13.7938 73.4699 14.0354 73.8323 14.3575C74.3759 14.9011 74.698 15.626 74.7383 16.3911V17.438C74.7383 17.8005 74.6578 18.1629 74.5168 18.485C74.396 18.7669 74.2148 19.0287 73.9933 19.23C73.8323 19.4515 73.6309 19.6125 73.3893 19.7535C73.2282 19.8743 73.047 19.975 72.8658 20.0555C72.7853 20.136 72.4833 20.2166 71.8792 20.438C71.2752 20.6595 70.7517 20.881 70.0068 21.1226C69.2618 21.3642 68.4967 21.5656 67.7517 21.8676C67.0068 22.1696 66.3222 22.3105 65.7182 22.5521C64.5303 22.9347 63.5437 23.7401 62.9397 24.8072C62.3155 25.834 61.9732 27.0018 61.9732 28.1897V30.5253C62.0135 31.1897 62.1544 31.8542 62.3558 32.4783C62.5974 33.2434 63.0403 33.9078 63.6242 34.4313C64.349 35.136 65.2148 35.6394 66.1813 35.9414C67.5705 36.3642 69.0202 36.5656 70.4699 36.5454C71.9195 36.6058 73.3692 36.4045 74.7584 35.9414C75.7249 35.6394 76.6309 35.1159 77.3759 34.4313C77.9799 33.9078 78.4229 33.2434 78.6645 32.4783C78.9061 31.8542 79.0269 31.1897 79.047 30.5253V15.8072C79.047 14.0958 78.3021 12.5052 77.0135 11.438ZM73.8524 31.7937C73.2484 32.3978 72.0403 32.7602 70.4699 32.7602C68.8994 32.7602 67.7719 32.4582 67.1678 31.8542C66.5034 31.0488 66.1813 30.0421 66.2618 28.9951C66.2618 28.4716 66.3423 27.8676 66.6443 27.4246C66.886 27.0421 67.1477 26.6797 67.4699 26.3776C67.7719 26.1562 68.2148 25.9347 68.5974 25.6931C69.0403 25.4716 69.7249 25.3105 70.2484 25.0891C70.7719 24.8474 71.3356 24.6461 71.8994 24.485C72.5034 24.3441 73.0269 24.1025 73.5504 23.9615C73.8121 23.881 74.0739 23.7602 74.2954 23.579C74.5772 23.4179 74.7584 23.136 74.8188 22.834L74.7383 28.9951C74.8188 30.0018 74.4967 31.0085 73.8524 31.7937Z" fill="white"/>
<path d="M57.7853 9.70638H60.1813C60.3423 9.72652 60.4631 9.84732 60.4833 10.0084V10.0688L59.6578 13.2299C59.6578 13.3909 59.5168 13.4514 59.3558 13.4514H57.7047C56.9598 13.4312 56.2148 13.552 55.5303 13.8339C55.047 14.0151 54.6041 14.297 54.2618 14.6594C54 14.9413 53.7786 15.2634 53.6578 15.6258C53.5772 15.948 53.5168 16.2701 53.4967 16.5923V36.1225C53.5168 36.3238 53.3558 36.4849 53.1745 36.505C53.1544 36.505 53.1544 36.505 53.1343 36.505H49.5302C49.349 36.4849 49.2081 36.3238 49.2282 36.1225V15.7869C49.2282 15.2634 49.3088 14.7198 49.4497 14.2165C49.5907 13.4514 49.9732 12.7467 50.4967 12.1829C51.2215 11.4379 52.0873 10.8339 53.0537 10.4514C54.5437 9.86746 56.1745 9.60571 57.7853 9.70638Z" fill="white"/>
<path d="M45.5435 29.5186V30.4246C45.5435 30.9884 45.463 31.532 45.3221 32.0756C45.161 32.8407 44.7986 33.5253 44.2751 34.1092C43.5502 34.8542 42.6845 35.4582 41.718 35.8407C40.208 36.3844 38.5972 36.6461 36.9865 36.5857C35.3757 36.626 33.765 36.3844 32.2549 35.8407C31.2885 35.4783 30.4026 34.8743 29.6979 34.1092C29.1744 33.5454 28.812 32.8407 28.6509 32.0756C28.4898 31.5521 28.4898 31.0287 28.4294 30.5052V10.0085C28.4093 9.80718 28.5704 9.6461 28.7516 9.62597C28.7717 9.62597 28.7717 9.62597 28.7919 9.62597H32.3153C32.5167 9.60584 32.6778 9.76691 32.6979 9.96825C32.6979 9.98839 32.6979 9.98839 32.6979 10.0085V29.0958C32.718 29.579 32.7583 30.0421 32.859 30.5253C32.9798 30.9079 33.2013 31.2703 33.463 31.5723C33.8053 31.9548 34.2482 32.2367 34.7315 32.3978C35.4563 32.6394 36.2214 32.7602 36.9865 32.7803C37.7717 32.8005 38.5771 32.6797 39.3221 32.3978C39.8053 32.2568 40.2482 31.9951 40.5905 31.6528C40.8925 31.3911 41.0939 31.0488 41.1945 30.6662C41.3556 30.183 41.416 29.6797 41.416 29.1562V10.0085C41.3959 9.82731 41.5368 9.6461 41.718 9.62597H45.3221C45.5234 9.60584 45.6845 9.76691 45.7046 9.96825C45.7046 9.98839 45.7046 9.98839 45.7046 10.0085L45.5435 29.5186Z" fill="white"/>
<path d="M20.98 0.00170655H24.5035C24.7048 -0.0184277 24.8659 0.142646 24.886 0.323854C24.886 0.343988 24.886 0.364123 24.886 0.364123V36.203C24.9061 36.4044 24.7451 36.5655 24.5437 36.5856C24.5236 36.5856 24.5236 36.5856 24.5035 36.5856H20.98C20.7786 36.6057 20.6175 36.4447 20.5974 36.2433C20.5974 36.2232 20.5974 36.2232 20.5974 36.203V0.364123C20.6779 0.142646 20.8189 0.00170655 20.98 0.00170655Z" fill="white"/>
<path d="M0.0200195 45.928C0.0401538 45.5656 0.322033 45.2635 0.704583 45.2434H4.99317C5.35559 45.2635 5.6576 45.5454 5.67774 45.928V69.6461C5.6576 70.0085 5.37572 70.3105 4.99317 70.3307H0.704583C0.342167 70.3105 0.0401538 70.0286 0.0200195 69.6461C0.0200195 69.6461 0.0200195 45.928 0.0200195 45.928Z" fill="white"/>
<path d="M11.7986 45.5454C11.8187 45.183 12.1207 44.9011 12.4831 44.9011H13.3691L27.6644 58.6528H27.7046V45.928C27.7046 45.5454 28.0066 45.2434 28.3892 45.2434H32.6778C33.0402 45.2635 33.3422 45.5454 33.3623 45.928V70.0286C33.3422 70.3911 33.0402 70.6729 32.6778 70.6729H32.114C31.9529 70.6528 31.7919 70.5924 31.6509 70.4917L17.4966 56.277H17.4563V69.6461C17.4563 70.0286 17.1543 70.3307 16.7717 70.3307H12.5234C12.161 70.3105 11.859 70.0286 11.8389 69.6461L11.7986 45.5454Z" fill="white"/>
<path d="M50.6375 44.9011C54.2214 44.9011 56.8791 46.0085 59.2952 48.2233C59.5771 48.4447 59.6173 48.8676 59.3959 49.1696C59.3757 49.1897 59.3556 49.2098 59.3355 49.23L56.5368 52.1494C56.2952 52.3911 55.8925 52.3911 55.6509 52.1494C54.3221 50.9817 52.5905 50.3172 50.8187 50.3172C46.7717 50.3172 43.7918 53.6796 43.7918 57.6864C43.7918 61.6729 46.812 64.9548 50.8388 64.9548C52.5905 64.9548 54.2818 64.3508 55.6308 63.2434C55.9127 63.0219 56.2952 63.0421 56.557 63.2837L59.3556 66.2434C59.5972 66.5253 59.5771 66.9481 59.3153 67.2098C56.9798 69.4649 53.859 70.7132 50.6174 70.6931C43.4898 70.6931 37.7314 64.9145 37.7314 57.8072C37.7314 50.6998 43.51 44.9011 50.6375 44.9011Z" fill="white"/>
<path d="M63.6243 45.928C63.6243 45.5454 63.9263 45.2434 64.3088 45.2434H68.5773C68.9397 45.2635 69.2417 45.5454 69.2619 45.928V65.0555H77.7786C78.1612 65.0555 78.4632 65.3575 78.4632 65.7401V69.6461C78.4632 70.0286 78.1612 70.3307 77.7786 70.3307H64.3088C63.9263 70.3307 63.6243 70.0286 63.6243 69.6461V45.928V45.928Z" fill="white"/>
<path d="M81.282 45.928C81.3021 45.5656 81.584 45.2635 81.9665 45.2434H86.3759C86.7585 45.2434 87.0605 45.5454 87.0605 45.928V60.4246C87.0605 62.9414 88.9129 64.9347 91.4699 64.9347C94.0471 64.9347 95.9397 62.9213 95.9397 60.4246V45.928C95.9397 45.5454 96.2417 45.2434 96.6243 45.2434H101.034C101.396 45.2635 101.698 45.5454 101.718 45.928V60.7266C101.718 66.1629 97.1276 70.6931 91.4699 70.6931C85.8525 70.6931 81.3021 66.183 81.3021 60.7266L81.282 45.928Z" fill="white"/>
<path d="M107.477 45.928C107.477 45.5656 107.758 45.2635 108.121 45.2434H116.859C123.765 45.2434 129.423 50.8609 129.423 57.7468C129.423 64.6931 123.785 70.3105 116.859 70.3105H108.121C107.758 70.2904 107.477 69.9884 107.477 69.626V45.928ZM116.497 65.0354C120.544 65.0354 123.483 61.8541 123.483 57.7669C123.483 53.7199 120.544 50.5387 116.497 50.5387H113.054V65.0354H116.497Z" fill="white"/>
<path d="M133.812 45.928C133.812 45.5454 134.114 45.2434 134.497 45.2434H149.315C149.698 45.2434 150 45.5454 150 45.928V49.834C150 50.2166 149.698 50.5186 149.315 50.5186H139.389V54.9682H147.564C147.926 54.9884 148.228 55.2703 148.248 55.6528V59.5588C148.248 59.9414 147.946 60.2434 147.564 60.2434H139.389V65.0756H149.315C149.698 65.0756 150 65.3776 150 65.7602V69.6662C150 70.0488 149.698 70.3508 149.315 70.3508H134.497C134.114 70.3508 133.812 70.0488 133.812 69.6662V45.928Z" fill="white"/>
<path d="M15.0403 11.438C13.6107 10.3105 11.5168 9.7065 8.57718 9.7065C7.24832 9.68637 5.89933 9.80717 4.5906 10.0689C3.62416 10.2904 2.73825 10.7333 1.97315 11.3374C1.30872 11.8407 0.785235 12.5253 0.463087 13.2904C0.161074 14.0354 0.0201347 14.8206 0.0201347 15.626V16.532C4.60536e-07 16.7333 0.161074 16.8944 0.342282 16.9146C0.362416 16.9146 0.362416 16.9146 0.382551 16.9146H3.90604C4.06711 16.8944 4.18792 16.7736 4.20805 16.6125C4.26846 15.8072 4.5906 15.0421 5.11409 14.438C5.71812 13.7535 6.84564 13.3911 8.49664 13.3911C9.20134 13.3105 9.92617 13.3911 10.6107 13.6125C11.0738 13.7938 11.5168 14.0354 11.8792 14.3575C12.4228 14.881 12.745 15.626 12.7852 16.3911V17.438C12.7852 17.8005 12.7047 18.1629 12.5638 18.485C12.443 18.7669 12.2617 19.0287 12.0403 19.23C11.8792 19.4515 11.6779 19.6125 11.4362 19.7535C11.2752 19.8743 11.094 19.975 10.9128 20.0555C10.8322 20.136 10.5302 20.2166 9.94631 20.438C9.36242 20.6595 8.81879 20.881 8.07383 21.1226C7.32886 21.3642 6.58389 21.5656 5.81879 21.8676C5.05369 22.1696 4.36913 22.3105 3.7651 22.5521C2.59732 22.9347 1.5906 23.7401 0.986578 24.8072C0.362416 25.834 0.0201342 27.0018 0 28.1897V30.5052C0.0402685 31.1696 0.181208 31.834 0.382551 32.4582C0.624161 33.2233 1.06711 33.8877 1.65101 34.4112C2.37584 35.1159 3.24161 35.6193 4.20805 35.9213C5.59732 36.3441 7.04698 36.5454 8.49664 36.5253C9.94631 36.5857 11.396 36.3844 12.7852 35.9213C13.7517 35.6193 14.6577 35.0958 15.4228 34.4112C16.0268 33.8877 16.4698 33.2233 16.6913 32.4582C16.9329 31.834 17.0537 31.1696 17.0738 30.5052V15.787C17.0738 14.0958 16.3289 12.5052 15.0403 11.438ZM11.9597 31.7938C11.3557 32.3978 10.2282 32.7602 8.57718 32.7602C6.92618 32.7602 5.79866 32.4582 5.19463 31.8542C4.5302 31.0488 4.20805 30.0421 4.28859 28.9951C4.28859 28.4515 4.42953 27.9078 4.65101 27.4246C4.89262 27.0421 5.15436 26.6998 5.47651 26.3776C5.77852 26.1562 6.22148 25.9347 6.60403 25.6931C7.04698 25.4716 7.73154 25.3105 8.25503 25.0891C8.77852 24.8474 9.34228 24.6461 9.90604 24.485C10.5101 24.3441 11.0336 24.1025 11.557 23.9615C11.8188 23.881 12.0805 23.7602 12.302 23.579C12.5839 23.4179 12.7651 23.136 12.8255 22.834V28.9951C12.9664 30.0219 12.6242 31.0286 11.9597 31.7938Z" fill="white"/>
</svg>
